<svg width="600" height="600" viewBox="0 0 600 600" fill="none" xmlns="http://www.w3.org/2000/svg">
<path fill-rule="evenodd" clip-rule="evenodd" d="M300 600C465.687 600 600 465.687 600 300C600 238.887 581.727 182.041 550.343 134.63L311.833 399.643C288.747 425.297 249.893 429.087 222.281 408.377L113.333 326.667C98.6057 315.62 95.621 294.727 106.667 280C117.712 265.273 138.606 262.287 153.333 273.333L262.28 355.043L507.133 82.985C453.287 31.5723 380.33 0 300 0C134.315 0 0 134.315 0 300C0 465.687 134.315 600 300 600Z" fill="#34A853"/>
</svg>
