<svg width="128" height="128" viewBox="0 0 128 128" fill="none" xmlns="http://www.w3.org/2000/svg">
<path d="M51 64C51 48.5348 64 28 64 28C64 28 77 48.5348 77 64C77 79.4652 64 100 64 100C64 100 51 79.4652 51 64Z" fill="white"/>
<path fill-rule="evenodd" clip-rule="evenodd" d="M64.5 117C93.4949 117 117 93.4949 117 64.5C117 35.5051 93.4949 12 64.5 12C35.5051 12 12 35.5051 12 64.5C12 93.4949 35.5051 117 64.5 117ZM64 28C64 28 51 48.5348 51 64C51 79.4652 64 100 64 100C64 100 77 79.4652 77 64C77 48.5348 64 28 64 28Z" fill="#34A853"/>
</svg>
