<svg width="600" height="600" viewBox="0 0 600 600" fill="none" xmlns="http://www.w3.org/2000/svg">
<path fill-rule="evenodd" clip-rule="evenodd" d="M300 600C465.687 600 600 465.687 600 300C600 134.315 465.687 0 300 0C134.315 0 0 134.315 0 300C0 465.687 134.315 600 300 600ZM302.653 68.9217C300 71.3937 300 75.3733 300 83.3333V290.377C300 295.073 300 297.42 298.883 299.357C297.767 301.29 295.733 302.463 291.667 304.81L112.361 408.333C105.468 412.313 102.021 414.303 101.208 417.837C100.395 421.373 102.52 424.513 106.769 430.79C126.526 459.98 152.684 484.377 183.333 502.073C218.804 522.553 259.04 533.333 300 533.333C340.96 533.333 381.197 522.553 416.667 502.073C452.137 481.593 481.593 452.137 502.073 416.667C522.553 381.197 533.333 340.96 533.333 300C533.333 259.04 522.553 218.804 502.073 183.333C481.593 147.862 452.137 118.407 416.667 97.9273C386.017 80.232 351.81 69.777 316.653 67.2617C309.09 66.7207 305.31 66.45 302.653 68.9217Z" fill="#565656"/>
</svg>
